<svg xmlns="http://www.w3.org/2000/svg" width="743" height="743" viewBox="0 0 743 743" xmlns:xlink="http://www.w3.org/1999/xlink" role="img" artist="Katerina Limpitsouni" source="https://undraw.co/"><path d="M743,371.5c0,108.41992-46.44971,206-120.54004,273.90918-12.95996,11.89062-26.76953,22.87012-41.33008,32.83008-3.22949,2.20996-6.48975,4.37988-9.78955,6.49023-3.1001,1.98047-6.24023,3.91016-9.3999,5.7998-2.52051,1.51074-5.06055,2.98047-7.62012,4.43066-8.68018,4.92969-17.58008,9.50977-26.68018,13.72949h-.02002c-1.02979.49023-2.06006.95996-3.1001,1.42969-.62988.29004-1.25977.57031-1.8999.85059-2.91992,1.2998-5.87012,2.57031-8.83008,3.7998-1.21973.5-2.43994,1-3.66016,1.49023-11.8999,4.7998-24.09961,8.99023-36.56982,12.54004-4.52002,1.29004-9.06982,2.5-13.65967,3.60938-20.38037,4.98047-41.42041,8.28027-62.95996,9.73047-8.41016.57031-16.89014.86035-25.44043.86035-29.84961,0-58.87012-3.52051-86.67969-10.16992-2.91016-.69043-5.82031-1.4209-8.7002-2.2002-2.87988-.75-5.75-1.5498-8.6001-2.37988-2.15967-.63086-4.31006-1.28027-6.45996-1.9502-1.41992-.43066-2.83984-.89062-4.25977-1.35059-10.03027-3.25-19.88037-6.91992-29.52002-10.97949-.2002-.08984-.41016-.16992-.61035-.25977-20.19971-8.56055-39.48975-18.86035-57.66992-30.7002v-.00977c-4.7998-3.12012-9.50977-6.35059-14.1499-9.69043C61.07031,605.87988,0,495.81934,0,371.5,0,166.33008,166.33008,0,371.5,0s371.5,166.33008,371.5,371.5Z" fill="#f2f2f2"/><path d="M292.9839,381.83256s23.87145,86.06132.3277,110.58236c-23.54374,24.52103-18.07313,43.32092-18.07313,43.32092,0,0-59.47427,18.98476-68.16239-51.30109l14.50453,53.63657s-55.835-4.40522-39.51383-74.15701c16.32117-69.75179,36.55262-69.82416,25.0093-91.20194-11.54332-21.37779-11.54332-129.87524,54.12619-135.58563,65.66951-5.71039,57.10392,28.55196,57.10392,28.55196l-25.32229,116.15386Z" fill="#090814"/><path d="M565.16992,697.46973c-9.90967,5.26953-25.86963,9.00977-37.52979,11.21973h-.02002c-1.02979.49023-2.06006.95996-3.1001,1.42969-.62988.29004-1.25977.57031-1.8999.85059-2.91992,1.2998-5.87012,2.57031-8.83008,3.7998-1.21973.5-2.43994,1-3.66016,1.49023l3.29004-3.33984,2.17041-2.2002,37.6001-38.17969s3.53955,6.92969,8.75,17.98926c1.01953,2.16016,2.09961,4.48047,3.22949,6.94043Z" fill="#ed9da0"/><path d="M298.19565,393.12555c-2.69218-57.79307,41.97603-106.82617,99.7691-109.51834,57.79307-2.69218,106.82656,41.97601,109.51873,99.76908,2.18337,46.87059-26.78601,87.97406-68.64099,103.27464l-14.00163,134.6349-107.13041-81.13515s20.95666-29.41531,31.41378-61.96909c-29.11127-17.42436-49.23152-48.62507-50.92859-85.05604Z" fill="#ed9da0"/><path d="M573.8501,689.67969c-1.15967,2.88965-4.33984,5.47949-8.68018,7.79004-9.90967,5.26953-25.86963,9.00977-37.52979,11.21973h-.02002c-5.14014.98047-9.4502,1.65039-12.02979,2.03027-.4502.07031-.84033.12988-1.18018.16992-.68994.09961-1.1499.16016-1.33008.19043l-.08984.00977c.16016.60938.2998,1.22949.42969,1.83008.14014.62012.27051,1.23926.37012,1.84961-1.21973.5-2.43994,1-3.66016,1.49023-11.8999,4.7998-24.09961,8.99023-36.56982,12.54004-4.52002,1.29004-9.06982,2.5-13.65967,3.60938-20.38037,4.98047-41.42041,8.28027-62.95996,9.73047-8.41016.57031-16.89014.86035-25.44043.86035-29.84961,0-58.87012-3.52051-86.67969-10.16992-2.91016-.69043-5.82031-1.4209-8.7002-2.2002-2.87988-.75-5.75-1.5498-8.6001-2.37988-2.15967-.63086-4.31006-1.28027-6.45996-1.9502-1.41992-.43066-2.83984-.89062-4.25977-1.35059l-34.14014-152.33984,108.1499-60c.88037.56055,1.75,1.12012,2.62012,1.66992,108.6001,68.86035,100.16992,15.45996,100.16992,15.45996,0,0,.25.15039.70996.43066,5.24023,3.16016,38.37012,22.91992,56.74023,28.16992,17.6001,5.0293,68.41992,103.06934,80.29004,126.38965,1.61963,3.16016,2.50977,4.9502,2.50977,4.9502Z" fill="#0b574f"/><path d="M511.56909,711.19577c-.03346-.45449-3.49371-45.50747-14.57433-62.1284-11.57693-17.36539-8.91691-42.70804-8.79702-43.77874l2.83847.31508c-.02788.25373-2.65723,25.39284,8.33416,41.87993,11.49607,17.2455,14.90892,61.62093,15.04833,63.50023l-2.84962.21191Z" fill="#090814"/><path d="M459.71113,266.69011s-81.44582-55.26013-141.40494-1.01141c-59.95912,54.24872-63.99253,153.76214,30.81805,212.50288l-7.97648-41.19112s-22.84157-34.26235,14.27598-31.40716,31.40716-31.40716,31.40716-31.40716c0,0,79.49527-35.83421,79.72038-60.74504l29.64063,46.57349s59.24103-49.47514-36.48078-93.31449Z" fill="#090814"/><path d="M335.43736,265.6787s-14.36041-33.34875-32.87697-8.10879c-18.51656,25.23996-4.48032,43.32092-4.48032,43.32092l37.35729-35.21214Z" fill="#0b574f"/><path d="M226.66992,713.70996c-20.19971-8.56055-39.48975-18.86035-57.66992-30.7002v-.00977c3.87988-6.59082,6.29004-10.45996,6.29004-10.45996l51.37988,41.16992Z" fill="#ed9da0"/><path d="M293.31006,663.26953l-32.25,63.03027c-1.41992-.43066-2.83984-.89062-4.25977-1.35059-10.03027-3.25-19.88037-6.91992-29.52002-10.97949-.2002-.08984-.41016-.16992-.61035-.25977-20.19971-8.56055-39.48975-18.86035-57.66992-30.7002v-.00977c-4.7998-3.12012-9.50977-6.35059-14.1499-9.69043,16.43018-37.22949,67.81006-100.7002,67.81006-100.7002l29.97998,1.43066,40.66992,89.22949Z" fill="#0b574f"/></svg>